<?xml version="1.0" encoding="UTF-8" standalone="no"?>
<!DOCTYPE svg PUBLIC "-//W3C//DTD SVG 1.1//EN" "http://www.w3.org/Graphics/SVG/1.1/DTD/svg11.dtd">
<svg width="100%" height="100%" viewBox="0 0 1920 1080" version="1.1" xmlns="http://www.w3.org/2000/svg" xmlns:xlink="http://www.w3.org/1999/xlink" xml:space="preserve" xmlns:serif="http://www.serif.com/" style="fill-rule:evenodd;clip-rule:evenodd;stroke-linejoin:round;stroke-miterlimit:1.41421;">
    <g transform="matrix(1,0,0,1,0,-126.97)">
        <g transform="matrix(1,0,0,1,-85,-5)">
            <g transform="matrix(1,0,-3.69779e-32,1.01587,-10,-22.381)">
                <path d="M1280,780L960,780L960,700L1195,465L1280,465L1280,780Z"/>
            </g>
            <g>
                <g transform="matrix(1.024,-1.27236e-32,0,1.03226,-19.68,-10.3226)">
                    <path d="M1132.5,320L1132.5,407.5L910,630L820,630L820,320L1132.5,320Z" style="fill:rgb(151,0,9);"/>
                </g>
                <g transform="matrix(3.03889e-17,0.496289,-0.563165,3.44839e-17,1184.11,209.375)">
                    <path d="M343.802,167.107L766.942,540L343.802,540L343.802,167.107Z" style="fill:white;"/>
                </g>
            </g>
        </g>
        <g transform="matrix(1,0,0,1,33.5371,381.97)">
            <g transform="matrix(1.01197,0,0,1.07722,-87.1059,-246.372)">
                <rect x="560.661" y="640" width="589.339" height="180"/>
            </g>
            <g transform="matrix(1,0,0,1,-137.717,-325.821)">
                <path d="M719.766,829.698L727.271,829.698C748.282,829.698 755.28,836.367 750.879,861.375C746.888,884.049 735.181,893.718 716.837,893.718L708.499,893.718L719.766,829.698ZM715.915,921.698C754.421,921.698 782.623,904.377 790.573,859.207C797.525,819.705 776.703,801.718 738.031,801.718L685.378,801.718L664.262,921.698L715.915,921.698Z" style="fill:white;fill-rule:nonzero;"/>
                <path d="M868.599,827.864C886.028,827.365 889.646,844.703 886.771,861.041C883.279,880.881 874.028,895.552 857.02,895.552C838.178,895.552 836.884,876.379 839.583,861.041C842.253,845.87 850.758,827.864 868.599,827.864ZM874.092,798.552C836.755,798.552 806.96,823.034 800.329,860.708C793.142,901.548 814.191,924.864 851.861,924.864C887.365,924.864 918.896,901.881 926.083,861.041C931.658,829.365 916.925,798.552 874.092,798.552Z" style="fill:white;fill-rule:nonzero;"/>
                <path d="M942.671,833.198L978.004,833.198L962.429,921.698L1001.74,921.698L1017.32,833.198L1052.65,833.198L1058.19,801.718L948.211,801.718L942.671,833.198Z" style="fill:white;fill-rule:nonzero;"/>
                <path d="M1126.6,880.885L1101.77,880.885L1121.51,837.864L1126.6,880.885ZM1082.59,921.698L1089.88,905.864L1129.04,905.864L1130.91,921.698L1170.08,921.698L1148.2,801.718L1108.2,801.718L1044.1,921.698L1082.59,921.698Z" style="fill:white;fill-rule:nonzero;"/>
                <path d="M1366.69,855.718L1312.87,855.718L1308.3,881.698L1325.63,881.698C1322.16,890.043 1311.03,895.552 1303.03,895.552C1283.18,895.552 1280.57,880.032 1283.56,863.046C1287.29,841.875 1297.09,827.864 1312.61,827.864C1322.78,827.864 1329,833.202 1330.1,843.042L1367.42,843.042C1367.78,813.541 1347.26,798.552 1318.43,798.552C1279.59,798.552 1250.97,824.866 1244.22,863.213C1236.86,905.045 1260.86,924.864 1291.53,924.864C1310.37,924.864 1322.43,917.869 1330.27,910.208L1329.69,922.033L1355.02,922.033L1366.69,855.718Z" style="fill:rgb(151,0,9);fill-rule:nonzero;"/>
                <path d="M1451.77,827.864C1469.19,827.365 1472.81,844.703 1469.94,861.041C1466.45,880.881 1457.19,895.552 1440.19,895.552C1421.35,895.552 1420.05,876.379 1422.75,861.041C1425.42,845.87 1433.92,827.864 1451.77,827.864ZM1457.26,798.552C1419.92,798.552 1390.13,823.034 1383.5,860.708C1376.31,901.548 1397.36,924.864 1435.03,924.864C1470.53,924.864 1502.06,901.881 1509.25,861.041C1514.83,829.365 1500.09,798.552 1457.26,798.552Z" style="fill:rgb(151,0,9);fill-rule:nonzero;"/>
            </g>
        </g>
    </g>
</svg>
